<!--?xml version="1.0" standalone="no"?-->
              <svg id="sw-js-blob-svg" viewBox="0 0 100 100" xmlns="http://www.w3.org/2000/svg" version="1.1">
                    <defs> 
                        <linearGradient id="sw-gradient" x1="0" x2="1" y1="1" y2="0">
                            <stop id="stop1" stop-color="rgba(248, 117, 55, 1)" offset="0%" data-darkreader-inline-stopcolor="" style="--darkreader-inline-stopcolor: var(--darkreader-background-f87537, #d76934);"></stop>
                            <stop id="stop2" stop-color="rgba(42.76, 143.177, 7.116, 1)" offset="100%" data-darkreader-inline-stopcolor="" style="--darkreader-inline-stopcolor: var(--darkreader-background-2b8f07, #345e25);"></stop>
                        </linearGradient>
                    </defs>
                <path fill="url(#sw-gradient)" d="M16.9,-17.9C23.4,-14.8,31.1,-10.8,32.9,-5.1C34.8,0.6,30.7,8,26.6,15.4C22.4,22.9,18.1,30.4,11.2,34.4C4.4,38.4,-5,39,-11.7,35.2C-18.3,31.4,-22.2,23.2,-27,15.4C-31.8,7.5,-37.4,0,-36,-6.1C-34.6,-12.2,-26.3,-16.8,-19.1,-19.8C-12,-22.9,-6,-24.3,-0.4,-23.9C5.2,-23.5,10.5,-21.1,16.9,-17.9Z" width="100%" height="100%" transform="translate(50 50)" stroke-width="0" style="transition: 0.3s;" stroke="url(#sw-gradient)"></path>
              </svg>